<svg width="40" height="40" viewBox="0 0 40 40" fill="none" xmlns="http://www.w3.org/2000/svg">
<g clip-path="url(#clip0_291_2792)">
<path fill-rule="evenodd" clip-rule="evenodd" d="M33.2055 18.765C33.1639 18.9067 33.0487 19.0408 32.925 19.1027C32.8789 19.1257 32.8204 19.1436 32.741 19.1594C32.7308 19.1615 32.7203 19.1624 32.7098 19.1623C30.8873 19.1331 29.0642 18.9744 27.2692 18.6718C26.7414 19.1084 26.2261 19.5568 25.7229 20.0279C26.2247 20.4862 26.7283 20.9224 27.2551 21.3581C29.0631 21.0695 30.8867 20.8964 32.7257 20.8818L32.7269 20.8818C32.7952 20.8818 32.8722 20.9026 32.9204 20.9187C33.2937 21.0431 33.2815 21.6009 33.0423 21.8472C32.9511 21.9563 32.8065 22.013 32.6696 22.0134C31.2344 22.0405 29.8121 22.1426 28.3911 22.3313C29.5227 23.1886 30.7041 23.9949 31.9354 24.7387C31.9372 24.7398 31.9391 24.741 31.9409 24.7422L31.9469 24.7462C31.9849 24.7714 32.0453 24.8115 32.0907 24.8735C32.152 24.9391 32.1744 25.0063 32.1888 25.0496L32.19 25.0531C32.195 25.0681 32.1975 25.0838 32.1975 25.0996C32.1975 25.108 32.1981 25.1133 32.1991 25.1223C32.2 25.1307 32.2012 25.1423 32.2027 25.1626C32.2046 25.1901 32.2069 25.2376 32.192 25.2866C32.1762 25.3493 32.1565 25.4114 32.114 25.4751C32.1086 25.4831 32.1025 25.4906 32.0956 25.4974C32.087 25.506 32.0781 25.5157 32.0663 25.5284L32.0661 25.5286C32.0552 25.5405 32.0418 25.5549 32.0276 25.5691C31.9995 25.5972 31.9607 25.6321 31.9104 25.6572C31.831 25.6969 31.7497 25.7169 31.6535 25.7169C31.5649 25.7169 31.4586 25.6999 31.3663 25.6337C29.8084 24.7021 28.3221 23.6698 26.9217 22.5367C26.2907 22.6434 25.6591 22.7735 25.0265 22.9165C25.2147 23.6219 25.4154 24.3255 25.6398 25.0167C27.2847 25.646 28.8718 26.3898 30.4153 27.2339C30.4191 27.236 30.4228 27.2382 30.4263 27.2406C30.4283 27.2419 30.4303 27.2432 30.4324 27.2446C30.4707 27.27 30.5319 27.3106 30.5774 27.3736C30.6078 27.4086 30.6249 27.4484 30.6346 27.4736C30.6425 27.4941 30.6507 27.5201 30.6562 27.5374C30.6581 27.5433 30.6596 27.5482 30.6607 27.5515C30.6657 27.5665 30.6683 27.5822 30.6683 27.598C30.6683 27.6064 30.6688 27.6117 30.6698 27.6207C30.6707 27.6291 30.672 27.6407 30.6734 27.661C30.6754 27.6885 30.6776 27.7359 30.6628 27.7849C30.6475 27.8452 30.6288 27.9049 30.5897 27.9659C30.5204 28.0972 30.3934 28.1736 30.2675 28.2096C30.2611 28.2114 30.2545 28.2128 30.2479 28.2137C30.1183 28.2323 29.9847 28.2143 29.8673 28.1556C29.8656 28.1548 29.8639 28.1539 29.8622 28.153C28.6271 27.4747 27.3666 26.8717 26.0806 26.3324C26.5828 27.7203 27.1602 29.0928 27.8009 30.4144C27.8019 30.4164 27.8028 30.4185 27.8037 30.4207C27.8042 30.4217 27.8046 30.4228 27.8051 30.4239C27.8392 30.5091 27.8597 30.5868 27.8597 30.6842C27.8597 30.7804 27.8154 30.881 27.7854 30.941C27.7814 30.9489 27.7768 30.9564 27.7715 30.9634C27.7694 30.9662 27.7673 30.9691 27.765 30.9721C27.726 31.0243 27.6633 31.1083 27.5726 31.1537C27.4932 31.1933 27.4118 31.2133 27.3156 31.2133C27.2363 31.2133 27.1283 31.1941 27.0363 31.1251C26.956 31.0649 26.8983 30.9869 26.8606 30.9116L26.8604 30.9111C26.0442 29.2651 25.3432 27.5473 24.7715 25.8002C24.0628 25.5347 23.3414 25.293 22.607 25.064C22.4567 25.593 22.3279 26.1324 22.2105 26.6628C23.4463 28.1505 24.5669 29.7244 25.5724 31.3845C25.6545 31.5093 25.6742 31.6558 25.6337 31.7974C25.6331 31.7995 25.6325 31.8015 25.6318 31.8035C25.5936 31.9179 25.5167 32.0349 25.3974 32.1145C25.3416 32.1517 25.2684 32.174 25.2313 32.1854C25.2247 32.1874 25.2193 32.189 25.2153 32.1904C25.141 32.2151 25.0495 32.2151 24.9752 32.1904C24.912 32.1693 24.8535 32.1302 24.8138 32.1037L24.8078 32.0998C24.7387 32.0537 24.695 31.9878 24.6681 31.9475L24.6641 31.9414C24.6635 31.9405 24.6629 31.9395 24.6623 31.9386C24.6616 31.9376 24.661 31.9365 24.6604 31.9355C23.8363 30.5629 22.9353 29.255 21.9451 28.0116C21.6554 29.5629 21.4574 31.1262 21.375 32.7018C21.3738 32.8493 21.3087 32.9717 21.2143 33.0661C21.119 33.1613 20.9951 33.2267 20.8457 33.2267C20.7773 33.2267 20.7003 33.2058 20.6521 33.1897C20.5818 33.1663 20.5088 33.1188 20.4586 33.0437L20.4547 33.0377C20.4282 32.998 20.3891 32.9396 20.368 32.8763C20.3455 32.8089 20.3456 32.7291 20.3457 32.6893L20.3457 32.6829C20.3457 32.6819 20.3457 32.681 20.3458 32.68C20.3458 32.6787 20.3458 32.6775 20.3459 32.6762C20.4334 30.7516 20.6938 28.8278 21.0841 26.9476C20.722 26.5212 20.3618 26.0988 19.9816 25.6978C19.5055 26.2285 19.0419 26.7595 18.5905 27.3018C18.8934 29.0804 19.0669 30.8869 19.1252 32.6929C19.1252 32.6944 19.1253 32.696 19.1253 32.6976C19.1253 32.7635 19.1058 32.8376 19.09 32.8859C19.0694 32.9641 19.0308 33.0258 18.9892 33.0705C18.9395 33.1387 18.8706 33.1823 18.8041 33.2044C18.756 33.2205 18.6789 33.2414 18.6106 33.2414C18.5278 33.2414 18.4646 33.2203 18.4206 33.2056L18.417 33.2044C18.4047 33.2003 18.3929 33.1945 18.382 33.1873L18.3762 33.1834C18.3399 33.1593 18.2909 33.1267 18.2522 33.0907C18.184 33.041 18.1404 32.9722 18.1182 32.9057C18.1023 32.8581 18.0817 32.7824 18.0812 32.7147C18.0405 31.2782 17.9118 29.8413 17.7068 28.4157C16.8356 29.5486 16.0282 30.7315 15.2962 31.9643C15.2935 31.9688 15.2906 31.9732 15.2874 31.9775C15.2853 31.9802 15.2832 31.9831 15.2809 31.9861C15.2437 32.0359 15.1849 32.1147 15.1008 32.1612C15.0142 32.2227 14.9255 32.242 14.8315 32.242C14.7533 32.242 14.6471 32.2233 14.5559 32.1566C14.5549 32.1559 14.5538 32.1552 14.5528 32.1545C14.5145 32.1291 14.4533 32.0885 14.4078 32.0255C14.3773 31.9905 14.3603 31.9507 14.3506 31.9255C14.3427 31.905 14.3344 31.879 14.329 31.8617C14.3271 31.8558 14.3255 31.8509 14.3244 31.8476C14.3194 31.8326 14.3169 31.8169 14.3169 31.8011V31.6542C14.3169 31.567 14.3399 31.4956 14.3834 31.4291C15.3017 29.8853 16.335 28.399 17.4694 26.9985C17.3627 26.3685 17.2324 25.7384 17.0785 25.1083C16.4611 25.294 15.8445 25.4922 15.2284 25.7132C14.6428 27.5031 13.9417 29.2646 13.1108 30.9548C13.1097 30.957 13.1085 30.9592 13.1073 30.9613C13.1065 30.9627 13.1057 30.9642 13.1049 30.9656C13.0495 31.0577 12.9916 31.1155 12.92 31.1692C12.9159 31.1722 12.9117 31.175 12.9074 31.1776C12.8111 31.2354 12.7262 31.2574 12.6259 31.2574C12.5417 31.2574 12.4605 31.2361 12.3837 31.1978C12.3782 31.195 12.3729 31.192 12.3679 31.1886C12.3659 31.1873 12.3639 31.186 12.3618 31.1846C12.3237 31.1593 12.2628 31.1189 12.2173 31.0563C12.1698 31.0033 12.1352 30.927 12.1188 30.8776C12.1176 30.8741 12.1165 30.8705 12.1156 30.8668C12.0965 30.7904 12.0965 30.7309 12.0965 30.6735V30.6695C12.0965 30.6028 12.1162 30.5196 12.1592 30.4506C12.8292 29.0695 13.4225 27.6504 13.9271 26.2051C12.596 26.7337 11.2923 27.3381 10.0396 28.0183C9.96988 28.0627 9.8851 28.083 9.81732 28.083C9.81533 28.083 9.81321 28.083 9.81096 28.083C9.77105 28.083 9.69128 28.0832 9.62378 28.0607C9.57083 28.0431 9.48693 28.0047 9.43396 27.9517C9.394 27.9118 9.3576 27.8572 9.33125 27.8176L9.32736 27.8118C9.28011 27.7409 9.25855 27.6531 9.25855 27.5833C9.25855 27.5813 9.25855 27.5792 9.25854 27.5769C9.25846 27.537 9.2583 27.4573 9.2808 27.3898C9.30188 27.3266 9.34097 27.2682 9.36749 27.2285C9.36885 27.2265 9.37018 27.2245 9.37147 27.2225C9.41756 27.1534 9.48347 27.1097 9.52386 27.0829C9.52594 27.0815 9.52795 27.0802 9.52989 27.0789C9.53332 27.0766 9.53685 27.0745 9.54045 27.0725C11.0998 26.2132 12.7162 25.4834 14.3755 24.8689C14.585 24.222 14.7712 23.5629 14.945 22.9019C14.3122 22.7589 13.6804 22.6288 13.0493 22.522C11.6488 23.6551 10.1625 24.6874 8.60466 25.619C8.51234 25.6852 8.406 25.7022 8.31746 25.7022C8.23854 25.7022 8.14209 25.6833 8.06054 25.6425C7.991 25.6078 7.90256 25.5477 7.85186 25.4525C7.81764 25.3979 7.79678 25.3297 7.78594 25.2943C7.78394 25.2878 7.78228 25.2824 7.78094 25.2783C7.75618 25.2041 7.75618 25.1127 7.78094 25.0384C7.80202 24.9752 7.84112 24.9167 7.86764 24.8771L7.87162 24.8711C7.9177 24.802 7.9836 24.7583 8.02399 24.7315C8.02608 24.7301 8.02809 24.7288 8.03003 24.7275C8.03184 24.7263 8.03368 24.7251 8.03554 24.724C9.26879 23.979 10.464 23.1717 11.598 22.3021C10.173 22.1113 8.7372 21.9975 7.30209 21.984C7.23629 21.9838 7.16261 21.9645 7.1144 21.9487C7.03283 21.9272 6.96115 21.8835 6.91007 21.8138C6.85939 21.7611 6.81832 21.7013 6.79574 21.6337L6.79458 21.6302C6.77988 21.5861 6.75879 21.523 6.75879 21.4402C6.75879 21.2849 6.81753 21.1443 6.91949 21.0424C7.01945 20.9425 7.15934 20.8818 7.30285 20.8818H7.30402C9.14214 20.8963 10.9803 21.055 12.7901 21.3577C13.3058 20.9339 13.8191 20.4994 14.3095 20.0426C13.8181 19.5716 13.3031 19.1231 12.7746 18.686C10.9667 18.9746 9.14303 19.1477 7.30402 19.1623L7.30285 19.1623C7.23451 19.1623 7.1575 19.1414 7.10931 19.1254C7.04302 19.1033 6.97442 19.0599 6.92476 18.9921C6.87409 18.9394 6.83302 18.8796 6.81045 18.812C6.80926 18.8084 6.80821 18.8048 6.80729 18.8011C6.80548 18.7939 6.80342 18.7861 6.80125 18.7779C6.78923 18.7326 6.77349 18.6733 6.77349 18.6038C6.77349 18.4608 6.83378 18.3293 6.90112 18.2284C6.90649 18.2203 6.91265 18.2128 6.91949 18.206C7.01463 18.1109 7.13832 18.0456 7.28744 18.0454C8.73772 18.0318 10.1754 17.9305 11.6123 17.7413C10.4779 16.8696 9.28276 16.0499 8.05024 15.3054C8.04474 15.302 8.03947 15.2984 8.03445 15.2944C7.93715 15.2166 7.86274 15.1039 7.82506 14.9909C7.77998 14.8558 7.80474 14.706 7.88632 14.5837C7.96205 14.4702 8.06306 14.3877 8.20354 14.3476C8.3454 14.3071 8.48612 14.328 8.60379 14.3868C8.6074 14.3886 8.61093 14.3906 8.61437 14.3927C10.174 15.3396 11.6618 16.3873 13.0775 17.5357C13.711 17.4169 14.3413 17.2979 14.9599 17.1573C14.7714 16.4388 14.5702 15.7323 14.3452 15.0265C12.7015 14.3837 11.1013 13.6407 9.57267 12.8114C9.43772 12.7429 9.35951 12.6141 9.32303 12.4865C9.32119 12.48 9.31979 12.4735 9.31885 12.4669C9.30284 12.3549 9.29616 12.2056 9.38618 12.0706C9.38747 12.0687 9.38881 12.0667 9.3902 12.0646C9.41547 12.0265 9.45578 11.9659 9.51819 11.9205C9.58326 11.8612 9.66399 11.8365 9.70038 11.8253C9.70501 11.8239 9.70893 11.8227 9.712 11.8217C9.71557 11.8205 9.71919 11.8194 9.72284 11.8185C9.7993 11.7994 9.85885 11.7994 9.91625 11.7994H9.92025C10.0066 11.7994 10.0775 11.822 10.1434 11.8646C11.365 12.5427 12.624 13.1578 13.9204 13.6982C13.4196 12.3092 12.8548 10.9364 12.2142 9.61499C12.2132 9.61295 12.2122 9.61088 12.2113 9.6088C12.1577 9.48367 12.1347 9.34543 12.1757 9.20191C12.2152 9.0638 12.3119 8.94394 12.4346 8.8797C12.5041 8.83607 12.588 8.81609 12.6553 8.81609C12.6573 8.81609 12.6594 8.81609 12.6616 8.81608C12.7015 8.816 12.7813 8.81584 12.8488 8.83833C12.9121 8.8594 12.9706 8.89848 13.0103 8.92498C13.0123 8.92634 13.0143 8.92766 13.0162 8.92895C13.0243 8.93432 13.0318 8.94047 13.0386 8.94731C13.0786 8.98725 13.115 9.0419 13.1414 9.08146C13.1427 9.08344 13.144 9.08538 13.1452 9.08728C13.1489 9.09279 13.1522 9.09853 13.1551 9.10448C13.9565 10.7501 14.6573 12.4678 15.229 14.2151C15.9221 14.4797 16.6279 14.7207 17.3467 14.949C17.4887 14.4171 17.6284 13.8769 17.746 13.3369C16.5247 11.8496 15.4041 10.2756 14.4128 8.61482C14.3769 8.55949 14.3553 8.48867 14.3441 8.45234C14.3421 8.4458 14.3405 8.44038 14.3391 8.43637C14.3167 8.36899 14.3146 8.2875 14.3329 8.21751C14.3373 8.17446 14.352 8.13799 14.3655 8.11108C14.3807 8.08069 14.3998 8.05204 14.4133 8.03179L14.4151 8.02915C14.4612 7.96006 14.5271 7.91633 14.5675 7.88953C14.5696 7.88814 14.5716 7.88681 14.5735 7.88551C14.6294 7.8483 14.7025 7.82593 14.7397 7.81458C14.7462 7.81258 14.7516 7.81092 14.7556 7.80959C14.8281 7.78546 14.9168 7.78485 14.99 7.80776C15.0308 7.81846 15.0648 7.83341 15.0898 7.84496C15.0969 7.84824 15.103 7.85105 15.1082 7.85348C15.1252 7.8614 15.1336 7.86533 15.1427 7.86837C15.1551 7.8725 15.1669 7.87827 15.1778 7.88551C15.2469 7.93157 15.2907 7.99743 15.3175 8.0378C15.3189 8.03989 15.3202 8.0419 15.3215 8.04384C15.323 8.04608 15.3244 8.04836 15.3258 8.05068C16.1351 9.4216 17.0344 10.7285 18.0119 11.9714C18.2995 10.4334 18.4844 8.87055 18.5667 7.29471C18.5669 7.29032 18.5673 7.28594 18.568 7.28159C18.5872 7.14723 18.6459 7.02988 18.7419 6.93392C18.8513 6.8246 18.9968 6.788 19.1253 6.788C19.2647 6.788 19.398 6.84546 19.4782 6.90557C19.4881 6.913 19.497 6.92166 19.5048 6.93133C19.5804 7.02584 19.6399 7.1602 19.6399 7.30237C19.6399 7.30495 19.6398 7.30752 19.6397 7.31009C19.5377 9.24773 19.2916 11.1571 18.8873 13.0381C19.2484 13.4613 19.6205 13.8739 19.995 14.2871C20.4809 13.7698 20.944 13.2402 21.3951 12.6981C21.0922 10.9196 20.9189 9.11272 20.8751 7.30592L20.8751 7.30237C20.8751 7.17403 20.9117 7.02854 21.0211 6.91922C21.1164 6.82398 21.2403 6.75861 21.3897 6.75861C21.4581 6.75861 21.5351 6.77949 21.5833 6.79554C21.5957 6.79967 21.6075 6.80544 21.6184 6.81268L21.6242 6.81656C21.6605 6.8407 21.7094 6.87328 21.7481 6.9093C21.8163 6.95896 21.86 7.02776 21.8821 7.09424C21.898 7.14183 21.9186 7.21757 21.9191 7.28527C21.9598 8.72164 22.0885 10.1459 22.2935 11.5696C23.1648 10.4367 23.9723 9.25464 24.7045 8.03505C24.7057 8.03306 24.7069 8.03109 24.7082 8.02915C24.7095 8.02721 24.7109 8.02519 24.7123 8.02311C24.7375 7.98518 24.7776 7.92476 24.8397 7.87939C24.9053 7.81811 24.9725 7.79579 25.0158 7.78138L25.0194 7.78019C25.0344 7.7752 25.0501 7.77265 25.0659 7.77265C25.0743 7.77265 25.0796 7.77208 25.0886 7.77111C25.097 7.77021 25.1086 7.76897 25.1289 7.76751C25.1564 7.76555 25.2039 7.7633 25.2529 7.77813C25.3132 7.79337 25.3729 7.81214 25.434 7.85119C25.5653 7.92041 25.6418 8.0474 25.6778 8.17317C25.6793 8.1785 25.6805 8.18391 25.6814 8.18938C25.701 8.30668 25.6825 8.45589 25.6238 8.57319C25.6221 8.57668 25.6202 8.58009 25.6182 8.58343C24.6854 10.1274 23.6518 11.5998 22.5172 12.9862C22.6365 13.6309 22.7676 14.2751 22.9105 14.9081C23.5243 14.733 24.1389 14.5251 24.7573 14.3148C25.3434 12.4956 26.0592 10.7197 26.9045 9.01535L26.9047 9.0149C26.9764 8.87159 27.1144 8.81151 27.2103 8.77954C27.3456 8.73447 27.4749 8.76078 27.5873 8.81691C27.5965 8.82154 27.6053 8.82713 27.6134 8.8336C27.6913 8.89592 27.7939 8.99177 27.8375 9.12233C27.8381 9.12435 27.8388 9.12638 27.8393 9.12843C27.8756 9.25534 27.8776 9.38885 27.8375 9.5092C27.8354 9.51525 27.833 9.52117 27.8302 9.52691C27.1437 10.9403 26.5347 12.3789 26.0149 13.8548C27.3612 13.3268 28.6696 12.7337 29.9522 12.0518C29.9569 12.0493 29.9617 12.0471 29.9667 12.0451C30.0779 12.0006 30.2173 12.0038 30.3324 12.0421C30.4531 12.0823 30.5576 12.1642 30.6208 12.2872C30.6832 12.3944 30.6999 12.5306 30.6812 12.6449C30.659 12.797 30.5708 12.9003 30.4807 12.9723C30.4738 12.9779 30.4663 12.9828 30.4585 12.987C28.8853 13.8314 27.2548 14.5608 25.5812 15.1752C25.3858 15.7924 25.2131 16.4105 25.0415 17.0416C25.6881 17.1963 26.3359 17.3282 26.9961 17.4479C28.3835 16.3284 29.8562 15.3099 31.3858 14.3781C31.3893 14.3759 31.3929 14.374 31.3965 14.3721C31.5142 14.3133 31.6549 14.2924 31.7968 14.3329C31.9373 14.373 32.0383 14.4555 32.114 14.569C32.1174 14.5741 32.1205 14.5794 32.1232 14.5848C32.1716 14.6815 32.2199 14.8082 32.1798 14.9604C32.1552 15.1108 32.0652 15.2141 31.9556 15.2872C31.9537 15.2885 31.9517 15.2897 31.9497 15.2909C30.7324 16.0209 29.5646 16.8261 28.4463 17.6836C29.8567 17.8742 31.2778 17.9877 32.6983 18.0013C32.7641 18.0014 32.8377 18.0208 32.8859 18.0365C32.9675 18.0581 33.0392 18.1018 33.0903 18.1715C33.1409 18.2242 33.182 18.2839 33.2046 18.3516C33.2058 18.3552 33.2068 18.3588 33.2077 18.3624C33.2096 18.3697 33.2116 18.3774 33.2138 18.3856C33.2258 18.431 33.2415 18.4903 33.2415 18.5597C33.2415 18.6393 33.2225 18.7137 33.2055 18.765ZM24.2694 21.9621C24.2738 21.9607 24.2782 21.9594 24.2826 21.9584C24.402 21.9307 24.5209 21.9029 24.6395 21.8752C25.0496 21.7795 25.4555 21.6847 25.8606 21.5952C25.4081 21.2083 24.9669 20.8017 24.537 20.3847L24.5355 20.3831C24.4402 20.2879 24.3747 20.164 24.3747 20.0147C24.3747 19.8653 24.4402 19.7415 24.5355 19.6462C24.5365 19.6452 24.5375 19.6442 24.5386 19.6432C24.9821 19.2253 25.426 18.8179 25.8889 18.4118C25.3516 18.3044 24.8151 18.1777 24.2795 18.0408C24.2761 18.0399 24.2727 18.0389 24.2694 18.0378C24.2062 18.0168 24.1477 17.9777 24.108 17.9512L24.102 17.9472C24.0329 17.9012 23.9891 17.8353 23.9623 17.7949C23.9609 17.7928 23.9596 17.7908 23.9583 17.7889C23.9511 17.778 23.9453 17.7662 23.9412 17.7538C23.9396 17.7491 23.9371 17.743 23.9324 17.732C23.9283 17.7225 23.9217 17.7074 23.9158 17.6921C23.9049 17.6637 23.8928 17.6256 23.8901 17.5797C23.8746 17.5084 23.8731 17.4297 23.8948 17.3593C24.0346 16.7754 24.1856 16.1904 24.3573 15.6141C23.7872 15.8013 23.2235 15.9765 22.6481 16.1299C22.6357 16.1332 22.623 16.1349 22.6102 16.1349H22.522C22.4256 16.1349 22.2852 16.1207 22.1827 16.0183C22.1804 16.016 22.178 16.0136 22.1755 16.0111C22.1218 15.9577 22.0348 15.8711 22.0105 15.7393C21.873 15.1896 21.7463 14.6296 21.6301 14.0774C21.2152 14.5556 20.7819 15.0142 20.3511 15.4701L20.3497 15.4716C20.3487 15.4726 20.3478 15.4736 20.3468 15.4746C20.2515 15.5698 20.1276 15.6352 19.9781 15.6352C19.8464 15.6352 19.7072 15.5723 19.6095 15.4746C19.6083 15.4734 19.6071 15.4722 19.6059 15.4709C19.2577 15.0981 18.92 14.7252 18.584 14.3436C18.4689 14.8123 18.3435 15.2809 18.2078 15.7495C18.2064 15.7542 18.2049 15.7588 18.2031 15.7632C18.1686 15.8494 18.1087 15.9576 17.9951 16.0257C17.9086 16.0776 17.8086 16.1202 17.6842 16.1202H17.5813C17.567 16.1202 17.5527 16.1181 17.539 16.114C16.8934 15.9204 16.247 15.7153 15.6001 15.4887C15.7869 16.1195 15.9525 16.7514 16.1068 17.3938C16.1095 17.4051 16.1108 17.4166 16.1108 17.4281C16.1108 17.4418 16.1117 17.4503 16.1129 17.4632C16.1138 17.4719 16.1148 17.4827 16.116 17.4985C16.1181 17.5278 16.1189 17.5645 16.1105 17.6071C16.1076 17.688 16.0841 17.7553 16.042 17.8183C16.0407 17.8202 16.0394 17.8222 16.038 17.8243C16.0112 17.8647 15.9674 17.9305 15.8983 17.9766C15.8376 18.017 15.7776 18.037 15.735 18.0512L15.7309 18.0525C15.7268 18.0539 15.7227 18.0551 15.7185 18.0561C15.1973 18.1801 14.6636 18.3046 14.1275 18.4116C14.5812 18.8062 15.0329 19.2124 15.4633 19.63L15.4649 19.6315C15.5602 19.7268 15.6256 19.8506 15.6256 20C15.6256 20.1493 15.5602 20.2732 15.4649 20.3684L15.4633 20.37C15.0316 20.7888 14.5894 21.1854 14.1375 21.5779C14.6652 21.6896 15.1861 21.8049 15.7074 21.941C15.7515 21.945 15.7889 21.9601 15.8163 21.9738C15.8467 21.989 15.8754 22.0081 15.8957 22.0216L15.8983 22.0234C15.9674 22.0694 16.0112 22.1353 16.038 22.1757C16.0394 22.1777 16.0407 22.1798 16.042 22.1817C16.0493 22.1926 16.055 22.2044 16.0592 22.2167L16.0595 22.2177C16.0742 22.2618 16.0904 22.3103 16.1064 22.3745C16.1253 22.4499 16.1289 22.5352 16.1057 22.6109C15.9646 23.2127 15.8015 23.814 15.6261 24.4143C16.186 24.2274 16.7486 24.0525 17.3228 23.8995C17.3273 23.8983 17.3319 23.8973 17.3365 23.8965C17.4561 23.8766 17.5905 23.8964 17.7059 23.9541C17.7113 23.9568 17.7166 23.9599 17.7217 23.9633C17.8353 24.039 17.9178 24.1399 17.9579 24.2803C17.9583 24.2816 17.9587 24.283 17.959 24.2843C18.097 24.8233 18.2242 25.3832 18.3406 25.9366C18.7522 25.4588 19.1743 25.0005 19.6065 24.5431C19.6069 24.5427 19.6073 24.5423 19.6077 24.5419C19.6083 24.5413 19.6089 24.5407 19.6095 24.5401C19.7047 24.4449 19.8287 24.3795 19.9781 24.3795C20.1276 24.3795 20.2515 24.4449 20.3468 24.5401L20.3486 24.5419C20.6978 24.9034 21.0362 25.2751 21.3724 25.6566C21.4875 25.1912 21.6129 24.733 21.7484 24.2651C21.749 24.2633 21.7496 24.2614 21.7502 24.2595C21.7713 24.1963 21.8104 24.1378 21.8369 24.0982L21.8409 24.0922C21.887 24.0231 21.9528 23.9794 21.9932 23.9526C21.9953 23.9512 21.9973 23.9499 21.9993 23.9486C22.0702 23.9014 22.1581 23.8798 22.2279 23.8798C22.2299 23.8798 22.232 23.8798 22.2342 23.8798C22.2736 23.8797 22.3517 23.8796 22.4185 23.9011C23.0815 24.096 23.744 24.3137 24.4056 24.5438C24.2259 23.9106 24.0485 23.266 23.8936 22.6208C23.8909 22.6096 23.8895 22.5981 23.8895 22.5865C23.8895 22.5728 23.8887 22.5643 23.8874 22.5515C23.8865 22.5427 23.8855 22.532 23.8844 22.5162C23.8823 22.4868 23.8815 22.4502 23.8898 22.4075C23.8927 22.3266 23.9163 22.2594 23.9583 22.1964C23.9596 22.1945 23.9609 22.1924 23.9623 22.1904C23.9891 22.15 24.0329 22.0841 24.102 22.0381C24.1627 21.9976 24.2228 21.9777 24.2653 21.9635L24.2694 21.9621Z" fill="white"/>
</g>
<defs>
<clipPath id="clip0_291_2792">
<rect width="40" height="40" fill="white"/>
</clipPath>
</defs>
</svg>
